<?xml version="1.0" standalone="no"?>
<!DOCTYPE svg PUBLIC "-//W3C//DTD SVG 20010904//EN"
 "http://www.w3.org/TR/2001/REC-SVG-20010904/DTD/svg10.dtd">
<svg version="1.0" xmlns="http://www.w3.org/2000/svg"
 width="700.000000pt" height="700.000000pt" viewBox="0 0 700.000000 700.000000"
 preserveAspectRatio="xMidYMid meet">
<metadata>
Created by potrace 1.11, written by Peter Selinger 2001-2013
</metadata>
<g transform="translate(0.000000,700.000000) scale(0.100000,-0.100000)"
fill="#000000" stroke="none">
<path d="M3308 6995 c-2 -2 -50 -6 -108 -10 -57 -3 -107 -8 -110 -9 -3 -2 -34
-7 -70 -10 -89 -9 -133 -17 -147 -24 -8 -5 9 -42 53 -115 35 -60 64 -111 64
-113 0 -2 17 -32 38 -66 21 -35 52 -88 69 -118 32 -58 353 -614 384 -664 l17
-30 37 60 c45 73 596 1025 602 1040 2 6 -2 11 -9 11 -13 1 -35 3 -173 22 -44
6 -107 14 -140 17 -63 6 -502 14 -507 9z"/>
<path d="M926 5868 c-235 -254 -433 -545 -587 -866 -27 -56 -49 -104 -49 -107
0 -3 -9 -24 -20 -48 -66 -141 -160 -446 -201 -652 -7 -33 -14 -64 -15 -70 -8
-37 -35 -235 -41 -305 -10 -109 -10 -552 0 -650 19 -182 45 -333 88 -505 30
-122 88 -316 96 -325 3 -3 288 -5 634 -6 346 0 631 -3 634 -6 4 -4 -248 -453
-285 -508 -6 -8 -13 -22 -17 -30 -8 -18 -169 -298 -183 -320 -6 -8 -13 -21
-17 -29 -3 -7 -32 -58 -64 -114 l-58 -100 28 -36 c33 -41 235 -247 301 -306
39 -34 71 -61 193 -161 37 -30 195 -141 257 -181 460 -292 954 -463 1530 -530
107 -13 645 -9 740 4 47 7 105 15 130 18 147 17 412 82 605 149 537 184 977
464 1393 886 46 47 97 101 112 121 l29 36 -94 163 c-52 90 -95 165 -95 166 0
2 -16 28 -35 58 -19 30 -35 58 -35 61 0 3 -11 22 -24 43 -27 44 -269 459 -300
517 -12 22 -30 52 -40 68 -10 15 -14 27 -10 28 5 0 292 1 639 2 l629 2 19 50
c39 104 114 390 131 500 3 22 9 54 12 70 27 136 41 347 38 585 -2 140 -5 268
-8 284 -2 16 -7 57 -10 90 -6 57 -9 81 -22 146 -2 14 -7 41 -10 60 -29 183
-106 454 -191 670 -162 412 -406 793 -709 1109 l-71 74 -410 -410 -410 -410
39 -44 c256 -285 408 -539 516 -854 36 -106 69 -228 82 -305 5 -30 11 -64 14
-75 2 -11 7 -51 11 -90 4 -38 9 -83 11 -100 6 -47 5 -313 -2 -390 -8 -92 -43
-294 -66 -380 -5 -22 -10 -42 -11 -45 0 -10 -65 -197 -85 -245 -239 -597 -740
-1088 -1337 -1311 -123 -45 -360 -108 -451 -119 -32 -3 -61 -8 -64 -10 -12 -7
-207 -19 -310 -18 -96 0 -229 8 -290 16 -383 55 -680 167 -1000 375 -63 41
-117 77 -120 81 -3 3 -39 33 -80 66 -269 217 -514 542 -655 870 -60 141 -124
343 -141 445 -2 14 -6 34 -9 46 -3 12 -7 39 -10 60 -3 21 -8 49 -10 61 -17 76
-23 364 -12 503 45 526 258 1006 630 1414 l44 49 -408 408 c-225 225 -411 409
-413 409 -3 0 -47 -46 -100 -102z"/>
</g>
</svg>
